<svg xmlns="http://www.w3.org/2000/svg" data-name="Layer 1" viewBox="0 0 168 168" id="date"><path fill="#2d4356" d="M80 83.288h8a4 4 0 0 0 4-4v-8a4 4 0 0 0-4-4h-8a4 4 0 0 0-4 4v8a4 4 0 0 0 4 4Zm0-12h8v8h-8Z"></path><path fill="#0bceb2" d="M100 83.288h8a4 4 0 0 0 4-4v-8a4 4 0 0 0-4-4h-8a4 4 0 0 0-4 4v8a4 4 0 0 0 4 4Zm0-12h8v8h-8Z"></path><path fill="#2d4356" d="M120 83.288h8a4 4 0 0 0 4-4v-8a4 4 0 0 0-4-4h-8a4 4 0 0 0-4 4v8a4 4 0 0 0 4 4Zm0-12h8v8h-8Z"></path><path fill="#0bceb2" d="M40 103.288h8a4 4 0 0 0 4-4v-8a4 4 0 0 0-4-4h-8a4 4 0 0 0-4 4v8a4 4 0 0 0 4 4Zm0-12h8v8h-8Z"></path><path fill="#2d4356" d="M60 103.288h8a4 4 0 0 0 4-4v-8a4 4 0 0 0-4-4h-8a4 4 0 0 0-4 4v8a4 4 0 0 0 4 4Zm0-12h8v8h-8Z"></path><path fill="#0bceb2" d="M80 103.288h8a4 4 0 0 0 4-4v-8a4 4 0 0 0-4-4h-8a4 4 0 0 0-4 4v8a4 4 0 0 0 4 4Zm0-12h8v8h-8Z"></path><path fill="#2d4356" d="M100 103.288h8a4 4 0 0 0 4-4v-8a4 4 0 0 0-4-4h-8a4 4 0 0 0-4 4v8a4 4 0 0 0 4 4Zm0-12h8v8h-8Z"></path><path fill="#0bceb2" d="M120 103.288h8a4 4 0 0 0 4-4v-8a4 4 0 0 0-4-4h-8a4 4 0 0 0-4 4v8a4 4 0 0 0 4 4Zm0-12h8v8h-8Z"></path><path fill="#2d4356" d="M40 123.288h8a4 4 0 0 0 4-4v-8a4 4 0 0 0-4-4h-8a4 4 0 0 0-4 4v8a4 4 0 0 0 4 4Zm0-12h8v8h-8Z"></path><path fill="#0bceb2" d="M60 123.288h8a4 4 0 0 0 4-4v-8a4 4 0 0 0-4-4h-8a4 4 0 0 0-4 4v8a4 4 0 0 0 4 4Zm0-12h8v8h-8Z"></path><path fill="#2d4356" d="M80 123.288h8a4 4 0 0 0 4-4v-8a4 4 0 0 0-4-4h-8a4 4 0 0 0-4 4v8a4 4 0 0 0 4 4Zm0-12h8v8h-8Z"></path><path fill="#0bceb2" d="M100 123.288h8a4 4 0 0 0 4-4v-8a4 4 0 0 0-4-4h-8a4 4 0 0 0-4 4v8a4 4 0 0 0 4 4Zm0-12h8v8h-8Z"></path><path fill="#2d4356" d="M120 123.288h8a4 4 0 0 0 4-4v-8a4 4 0 0 0-4-4h-8a4 4 0 0 0-4 4v8a4 4 0 0 0 4 4Zm0-12h8v8h-8Z"></path><path fill="#0bceb2" d="M40 143.288h8a4 4 0 0 0 4-4v-8a4 4 0 0 0-4-4h-8a4 4 0 0 0-4 4v8a4 4 0 0 0 4 4Zm0-12h8v8h-8Z"></path><path fill="#2d4356" d="M60 143.288h8a4 4 0 0 0 4-4v-8a4 4 0 0 0-4-4h-8a4 4 0 0 0-4 4v8a4 4 0 0 0 4 4Zm0-12h8v8h-8Z"></path><path fill="#0bceb2" d="M80 143.288h8a4 4 0 0 0 4-4v-8a4 4 0 0 0-4-4h-8a4 4 0 0 0-4 4v8a4 4 0 0 0 4 4Zm0-12h8v8h-8Z"></path><path fill="#2d4356" d="M100 143.288h8a4 4 0 0 0 4-4v-8a4 4 0 0 0-4-4h-8a4 4 0 0 0-4 4v8a4 4 0 0 0 4 4Zm0-12h8v8h-8Z"></path><circle cx="2" cy="149.288" r="2" fill="#2d4356"></circle><path fill="#2d4356" d="M11 147.288H8a2 2 0 0 0 0 4h3a2 2 0 0 0 0-4Z"></path><path fill="#0bceb2" d="M118.154 155.288h-8.308a2.006 2.006 0 0 0 0 4h8.308a2.006 2.006 0 0 0 0-4zm-60 0h-8.308a2.006 2.006 0 0 0 0 4h8.308a2.006 2.006 0 0 0 0-4zm45.846 0H64a2 2 0 0 0 0 4h15.94v2H72a2 2 0 0 0 0 4h25a2 2 0 0 0 0-4h-8.94v-2H104a2 2 0 0 0 0-4z"></path><path fill="#2d4356" d="M160 147.288h-3a2 2 0 0 0 0 4h3a2 2 0 0 0 0-4Z"></path><circle cx="166" cy="149.288" r="2" fill="#2d4356"></circle><path fill="#2d4356" d="M150.721 147.288h-3.8a7.952 7.952 0 0 0 1.079-4v-105a8 8 0 0 0-8-8h-9v-5a2 2 0 1 0-4 0v16a3 3 0 0 1-6 0v-16a2 2 0 1 0-4 0v5H91v-5a2 2 0 0 0-4 0v16a3 3 0 0 1-6 0v-16a2 2 0 0 0-4 0v5H51v-5a2 2 0 0 0-4 0v16a3 3 0 0 1-6 0v-16a2 2 0 0 0-4 0v5h-9a8 8 0 0 0-8 8v105a7.922 7.922 0 0 0 1.088 4h-3.81a2.017 2.017 0 1 0 0 4h133.443a2.017 2.017 0 1 0 0-4zm-32.68-102.347a6.98 6.98 0 0 0 11.919 0c.015.171.04.34.04.514a6 6 0 1 1-12 0c0-.175.025-.343.04-.514zm-40 0a6.98 6.98 0 0 0 11.919 0c.015.171.04.34.04.514a6 6 0 1 1-12 0c0-.175.025-.343.04-.514zm-40 0a6.98 6.98 0 0 0 11.919 0c.015.171.04.34.04.514a6 6 0 1 1-12 0c0-.175.025-.343.04-.514zM24 38.288a4.005 4.005 0 0 1 4-4h9v4.048a10 10 0 1 0 14 0v-4.048h26v4.048a10 10 0 1 0 14 0v-4.048h26v4.048a10 10 0 1 0 14 0v-4.048h9a4.005 4.005 0 0 1 4 4v21H24zm4 109a4.005 4.005 0 0 1-4-4v-80h120v80a4.005 4.005 0 0 1-4 4zM164 10.41a3 3 0 1 0-3-3 3.003 3.003 0 0 0 3 3zm0-4.5a1.5 1.5 0 1 1-1.5 1.5 1.501 1.501 0 0 1 1.5-1.5zm-2 50.378a2 2 0 1 0 2 2 2.002 2.002 0 0 0-2-2zm0 3a1 1 0 1 1 1-1 1.001 1.001 0 0 1-1 1zM62 3.91a2 2 0 1 0 2 2 2.002 2.002 0 0 0-2-2zm0 3a1 1 0 1 1 1-1 1.001 1.001 0 0 1-1 1zm76.667 9.378a2 2 0 1 0 2 2 2.002 2.002 0 0 0-2-2zm0 3a1 1 0 1 1 1-1 1.001 1.001 0 0 1-1 1zm-106-2a2 2 0 1 0-2 2 2.002 2.002 0 0 0 2-2zm-3 0a1 1 0 1 1 1 1 1.001 1.001 0 0 1-1-1z"></path><path fill="#0bceb2" d="m6.415 43.544 1.487-1.955-.939-.532-.954 2.19h-.032l-.969-2.175-.956.548 1.472 1.909v.031l-2.301-.298v1.064l2.316-.297v.032l-1.487 1.908.892.564 1.018-2.207h.03l.939 2.191.986-.563-1.502-1.878v-.031l2.362.281v-1.064l-2.362.313v-.031zM5.734 4.442l-.856 1.099.514.324.586-1.27h.018l.54 1.261.568-.324-.865-1.082v-.018l1.36.163v-.613l-1.36.18v-.018l.856-1.126-.54-.306-.55 1.261h-.018L5.429 2.72l-.551.316.848 1.099v.018l-1.325-.171v.613l1.333-.171v.018zM157.724 33.374v-1.043l-2.317.306v-.03l1.459-1.918-.921-.522-.936 2.148h-.032l-.95-2.133-.938.537 1.444 1.873v.03l-2.257-.291v1.043l2.272-.291v.031l-1.459 1.871.875.553.999-2.164h.029l.921 2.149.968-.553-1.474-1.841v-.031l2.317.276zM100.351 14.919l1.258-1.654-.794-.45-.807 1.852h-.027l-.821-1.839-.808.463 1.245 1.615v.027l-1.947-.252v.9l1.96-.251v.026l-1.258 1.615.754.477.862-1.867h.026l.794 1.853.834-.476-1.271-1.589v-.026l1.999.238v-.9l-1.999.265v-.027z"></path></svg>