<svg xmlns="http://www.w3.org/2000/svg" width="32" height="32" id="key"><g stroke="#373449" stroke-linecap="round" stroke-linejoin="round"><path fill="#2bbda8" d="M16.157 6.502a5.997 5.997 0 0 0-5.356 3 5.997 5.997 0 0 0 .635 6.898l-.922 1.596.367 1.367-1.367.365.367 1.365-1.367.368.367 1.365-1.351.34.351 1.392-1.367.366-.5.867.983 2.299 2.482-.3L14.9 18.4a5.974 5.974 0 0 0 2.162-.012 5.976 5.976 0 0 1-2.541-4.888A5.997 5.997 0 0 1 19.454 7.6a6.04 6.04 0 0 0-.457-.297 5.976 5.976 0 0 0-2.84-.802zm4.365 3.998a1.5 1.5 0 1 0 1.465 1.812 6 6 0 0 0-.1-.926 1.497 1.497 0 0 0-1.365-.886z"></path><path fill="none" d="M20.522 7.5a6 6 0 0 0-2 11.657V21l1 1-1 1 1 1-1 1 1 1-1 .97 1 1.03-1 1v1l2 1.5 2-1.5V19.157a6 6 0 0 0-2-11.656zm0 3a1.5 1.5 0 1 1 0 3 1.5 1.5 0 0 1 0-3z"></path><path fill="none" d="M12.172 7.742a5.99 5.989 0 0 1 2.491-6.206 5.99 5.989 0 0 1 6.69-.03 5.99 5.989 0 0 1 2.546 6.183 5.99 5.989 0 0 1-4.771 4.687"></path></g></svg>